<?xml version="1.0"?>
<svg version="1.1" xmlns="http://www.w3.org/2000/svg" width="400px" height="200px" style=""><path fill="#fafafa" d="M104.842,148.41l0,7.99l-29.892,0l0-7.99l7.05-2.538l-2.256-6.862l-20.868,0l-2.35,6.768l7.332,2.632l0,7.99l-28.388,0l0-7.99l6.862-2.632l20.68-55.366l15.04-0.282l20.21,55.648z M76.642,128.952l-7.05-22.278l-7.426,22.278l14.476,0z M135.06394,105.64l0.658,6.486s8.93-7.238,17.296-7.238c9.118,0,14.288,6.486,14.288,16.732l0,24.91l6.58,2.35l0,7.52l-25.85,0l0-7.52l5.17-2.35l0-22.372c0-4.324-2.444-7.52-6.392-7.52c-5.828,0-10.058,5.358-10.058,5.358l0,24.534l5.17,2.35l0,7.52l-26.79,0l0-7.52l7.52-2.35l0-30.55l-7.52-2.35l0-7.52z M218.11388,156.4l-1.692-6.11s-7.238,7.05-15.228,7.05c-9.118,0-14.664-5.358-14.664-14.758c0-11.092,8.366-15.51,22.654-15.51l6.58,0l0-5.17c0-4.794-2.538-6.862-7.238-6.862c-4.794,0-8.272,1.41-8.272,1.41l-1.41,5.922l-8.46,0l-0.658-13.912s11.374-3.76,20.398-3.76c14.288,0,19.74,4.982,19.74,18.612l0,23.218l7.05,1.692l0,7.52z M215.76388,135.062l-5.358,0c-7.332,0-10.246,1.88-10.246,6.11c0,3.572,1.974,5.64,5.546,5.64c4.982,0,10.058-5.452,10.058-5.452l0-6.298z M268.82782,105.64l0.846,6.486s6.768-7.426,13.066-7.426c5.17,0,8.742,1.692,8.742,1.692l-0.752,18.048l-8.46,0l-1.41-7.99c-5.452,0-10.152,5.264-10.152,5.264l0,24.816l9.4,2.35l0,7.52l-31.02,0l0-7.52l7.52-2.35l0-30.55l-7.52-2.35l0-7.52z M299.89576,113.63l0-7.52l21.62-0.47l0,32.43c0,5.17,1.504,7.52,5.734,7.52c6.11,0,10.622-5.076,10.622-5.076l0-24.534l-7.52-2.35l0-7.52l21.62-0.47l0,40.89l7.52,1.88l0,7.332l-19.834,0.658l-0.94-6.58s-7.52,7.52-16.45,7.52c-9.4,0-14.852-6.298-14.852-16.826l0-24.534z M391.4997,146.53l8.46,2.35l0,7.52l-30.174,0l0-7.52l7.52-2.35l0-52.828l-7.52-1.88l0-7.52l21.714-0.752l0,62.98z M413.07364,149.068c0-5.358,3.854-8.46,8.084-8.46c5.17,0,7.896,3.102,7.896,8.46c0,5.452-3.854,8.554-8.084,8.554c-5.17,0-7.896-3.102-7.896-8.554z"/><path fill="#030303" d="M350.18798828125,103.42138671875q0-0.0205078125,0.013671875-0.145263671875t0.035888671875-0.30419921875t0.049560546875-0.38623046875t0.0478515625-0.391357421875t0.035888671875-0.32470703125t0.015380859375-0.18798828125q-0.02734375-0.013671875-0.066650390625-0.039306640625t-0.039306640625-0.059814453125q0-0.0478515625,0.046142578125-0.076904296875t0.080322265625-0.042724609375q0.013671875-0.17431640625,0.0341796875-0.4853515625t0.063232421875-0.671630859375t0.11962890625-0.7314453125t0.203369140625-0.67333984375t0.30419921875-0.493896484375t0.4375-0.19140625t0.4306640625,0.1640625t0.278564453125,0.42724609375t0.1640625,0.58447265625t0.08544921875,0.63916015625t0.035888671875,0.5947265625t0.013671875,0.4443359375q0.0068359375,0.10595703125,0.05126953125,0.141845703125t0.097412109375,0.049560546875t0.095703125,0.03076171875t0.042724609375,0.08544921875q0,0.07861328125-0.095703125,0.109375t-0.150390625,0.03759765625q0.0341796875,0.42724609375,0.093994140625,0.8408203125t0.158935546875,0.833984375q0.013671875,0.07861328125,0.03759765625,0.158935546875t0.02392578125,0.155517578125q0,0.0546875-0.03759765625,0.090576171875t-0.097412109375,0.056396484375t-0.11962890625,0.02734375t-0.100830078125,0.0068359375q-0.15380859375,0-0.259765625-0.05810546875t-0.14013671875-0.22216796875q-0.09228515625-0.44091796875-0.18115234375-0.92626953125q-0.0751953125-0.42041015625-0.0751953125-0.81689453125q0-0.0615234375,0.00341796875-0.123046875q-0.287109375,0-0.57763671875,0.013671875t-0.55712890625,0.1025390625q-0.0068359375,0.09228515625-0.0341796875,0.3486328125t-0.0615234375,0.55029296875t-0.070068359375,0.562255859375t-0.042724609375,0.381103515625q-0.0068359375,0.0478515625-0.070068359375,0.090576171875t-0.13671875,0.046142578125t-0.1298828125-0.046142578125t-0.056396484375-0.176025390625z M350.8271484375,101.35009765625q0.2666015625-0.0615234375,0.534912109375-0.07177734375t0.541748046875-0.02392578125q-0.013671875-0.08544921875-0.0068359375-0.176025390625t0.0068359375-0.182861328125q0-0.20166015625-0.01025390625-0.46826171875t-0.03076171875-0.5400390625t-0.052978515625-0.538330078125t-0.073486328125-0.4716796875t-0.087158203125-0.329833984375t-0.100830078125-0.123046875q-0.10595703125,0.0068359375-0.199951171875,0.182861328125t-0.1708984375,0.44775390625t-0.14013671875,0.6083984375t-0.10595703125,0.657958984375t-0.070068359375,0.59814453125t-0.0341796875,0.4306640625z M353.63559082031,102.2421875l0-0.09912109375q0-0.123046875,0.0068359375-0.232421875q0.0068359375-0.15380859375,0.0068359375-0.2529296875q0-0.0546875,0.0068359375-0.124755859375t0.0341796875-0.111083984375q0.0341796875-0.0341796875,0.080322265625-0.070068359375t0.100830078125-0.035888671875q0.17431640625,0,0.2734375,0.039306640625t0.10595703125,0.162353515625l0.013671875,0.10595703125q0.0615234375-0.14697265625,0.1640625-0.364013671875t0.237548828125-0.41357421875t0.30419921875-0.3349609375t0.357177734375-0.138427734375q0.17431640625,0,0.287109375,0.1640625t0.179443359375,0.418701171875t0.093994140625,0.5673828125t0.03759765625,0.613525390625t0.013671875,0.548583984375t0.02392578125,0.374267578125q0.013671875,0.10595703125,0.046142578125,0.223876953125t0.032470703125,0.217041015625q0,0.02734375-0.039306640625,0.052978515625t-0.083740234375,0.042724609375t-0.090576171875,0.02734375t-0.066650390625,0.01025390625q-0.13330078125,0-0.189697265625-0.199951171875t-0.070068359375-0.500732421875t-0.013671875-0.651123046875t-0.02392578125-0.651123046875t-0.097412109375-0.500732421875t-0.234130859375-0.206787109375q-0.14697265625,0-0.30419921875,0.189697265625t-0.27001953125,0.504150390625q-0.109375,0.314453125-0.150390625,0.71435546875q-0.013671875,0.12646484375-0.013671875,0.2529296875q0,0.27685546875,0.05810546875,0.5537109375q0.0068359375,0.0478515625-0.039306640625,0.07177734375t-0.114501953125,0.03759765625t-0.138427734375,0.01708984375t-0.107666015625,0.00341796875q-0.13330078125,0-0.213623046875-0.093994140625t-0.124755859375-0.240966796875t-0.059814453125-0.329833984375t-0.018798828125-0.360595703125z M356.74139648438,102.22509765625q0-0.232421875,0.063232421875-0.44775390625t0.189697265625-0.384521484375t0.316162109375-0.27001953125t0.439208984375-0.100830078125q0.15380859375,0,0.340087890625,0.046142578125t0.350341796875,0.13671875t0.2734375,0.230712890625t0.109375,0.3212890625q0,0.08544921875-0.029052734375,0.1298828125t-0.117919921875,0.04443359375l-0.03759765625-0.0068359375q0.09912109375,0.2666015625,0.1708984375,0.546875t0.14013671875,0.560546875q0.02734375,0.0546875,0.041015625,0.097412109375t0.013671875,0.083740234375q0,0.0546875-0.03076171875,0.090576171875t-0.080322265625,0.052978515625t-0.1025390625,0.02392578125t-0.093994140625,0.0068359375q-0.14697265625,0-0.220458984375-0.05126953125t-0.10595703125-0.14013671875t-0.039306640625-0.199951171875t-0.02734375-0.223876953125q-0.041015625,0.13330078125-0.107666015625,0.259765625t-0.1572265625,0.227294921875t-0.213623046875,0.16064453125t-0.27685546875,0.059814453125q-0.2255859375,0-0.37939453125-0.1298828125t-0.247802734375-0.319580078125t-0.13671875-0.405029296875t-0.042724609375-0.39990234375z M357.22674804688,102.17724609375q0,0.12646484375,0.01708984375,0.2666015625t0.056396484375,0.27685546875t0.100830078125,0.258056640625t0.15380859375,0.213623046875q0.16748046875-0.18115234375,0.247802734375-0.44091796875t0.1435546875-0.500732421875t0.1435546875-0.41357421875t0.247802734375-0.172607421875q0.10595703125,0,0.177734375,0.03759765625q-0.0341796875-0.08544921875-0.11279296875-0.165771484375t-0.176025390625-0.14697265625t-0.20166015625-0.109375t-0.196533203125-0.042724609375q-0.02734375,0-0.063232421875,0.008544921875t-0.056396484375,0.001708984375q-0.14013671875,0.041015625-0.230712890625,0.141845703125t-0.14697265625,0.237548828125t-0.080322265625,0.2802734375t-0.02392578125,0.27001953125z M359.70364746094,101.26806640625q0-0.14013671875,0.049560546875-0.23583984375t0.210205078125-0.095703125q0.0615234375,0,0.15380859375,0.018798828125t0.10595703125,0.093994140625q0.0341796875,0.20166015625,0.03759765625,0.4375t0.02392578125,0.4443359375q0.07861328125-0.15380859375,0.20166015625-0.33154296875t0.2802734375-0.328125t0.341796875-0.24951171875t0.3759765625-0.09912109375q0.013671875,0,0.05126953125,0.01025390625t0.070068359375,0.029052734375t0.039306640625,0.042724609375t-0.03759765625,0.04443359375q-0.013671875,0.041015625-0.05810546875,0.049560546875t-0.07861328125,0.008544921875q-0.0205078125,0-0.06494140625-0.01708984375q-0.2529296875,0.13330078125-0.4306640625,0.3623046875t-0.29052734375,0.507568359375t-0.1640625,0.587890625t-0.05126953125,0.603271484375q0,0.14697265625-0.066650390625,0.177734375t-0.213623046875,0.03076171875q-0.07861328125,0-0.165771484375-0.01708984375t-0.121337890625-0.109375q-0.0615234375-0.19482421875-0.100830078125-0.44775390625t-0.059814453125-0.521240234375t-0.029052734375-0.528076171875t-0.008544921875-0.46826171875z M361.99255859375,101.92431640625q0-0.068359375,0.015380859375-0.18115234375t0.035888671875-0.223876953125t0.0478515625-0.206787109375t0.06494140625-0.123046875q0.02734375-0.02734375,0.093994140625-0.0546875t0.14013671875-0.039306640625t0.13671875,0.01025390625t0.076904296875,0.090576171875q-0.0478515625,0.0615234375-0.087158203125,0.210205078125t-0.059814453125,0.329833984375q-0.01708984375,0.15380859375-0.01708984375,0.31787109375l0,0.05810546875q0.00341796875,0.19140625,0.0341796875,0.35205078125t0.093994140625,0.264892578125t0.176025390625,0.104248046875q0.2392578125,0,0.4375-0.220458984375t0.35205078125-0.538330078125t0.27001953125-0.675048828125t0.1982421875-0.623779296875q0.0205078125-0.07861328125,0.097412109375-0.10595703125t0.165771484375-0.018798828125t0.158935546875,0.042724609375t0.083740234375,0.08203125q-0.068359375,0.57421875-0.107666015625,1.1484375t-0.039306640625,1.1552734375q0,0.11279296875,0.01025390625,0.206787109375t-0.01025390625,0.16064453125t-0.090576171875,0.10595703125t-0.223876953125,0.039306640625q-0.0341796875,0-0.087158203125-0.0068359375t-0.109375-0.022216796875t-0.095703125-0.046142578125t-0.039306640625-0.07177734375q0-0.2529296875,0.018798828125-0.51953125t0.052978515625-0.51611328125q-0.09228515625,0.13330078125-0.203369140625,0.264892578125t-0.244384765625,0.237548828125t-0.287109375,0.169189453125t-0.33154296875,0.063232421875q-0.2529296875,0-0.398193359375-0.11962890625t-0.21875-0.299072265625t-0.09228515625-0.391357421875t-0.018798828125-0.41015625z M365.20773925781,103.4384765625q0-0.09912109375,0.008544921875-0.20849609375t0.015380859375-0.205078125l0.0205078125-0.5126953125q0.0341796875-0.615234375,0.083740234375-1.2099609375t0.083740234375-1.203125q0.0205078125-0.3349609375,0.03076171875-0.657958984375t0.03076171875-0.657958984375q-0.013671875-0.02734375-0.013671875-0.03759765625q0-0.0478515625,0.035888671875-0.0751953125t0.083740234375-0.046142578125t0.100830078125-0.025634765625t0.080322265625-0.0068359375l0.07861328125,0q0.10595703125,0.013671875,0.15380859375,0.066650390625t0.0615234375,0.12646484375t0.0068359375,0.1572265625t-0.0068359375,0.155517578125q0,0.49560546875-0.02392578125,1.010009765625t-0.0546875,1.0322265625t-0.056396484375,1.03564453125t-0.025634765625,1.023681640625l0,0.2392578125q0,0.16064453125-0.090576171875,0.2119140625t-0.251220703125,0.05126953125q-0.14013671875,0-0.24609375-0.0615234375t-0.10595703125-0.20166015625z M366.84723632813,103.30517578125q0-0.08544921875,0.01025390625-0.172607421875t0.01025390625-0.172607421875l0-0.0546875q0-0.10595703125,0.087158203125-0.13330078125t0.179443359375-0.02734375q0.10595703125,0,0.203369140625,0.04443359375t0.097412109375,0.1708984375q0.0205078125,0.0615234375,0.0205078125,0.14697265625l0,0.16064453125q0,0.11962890625-0.083740234375,0.165771484375t-0.223876953125,0.046142578125q-0.09912109375,0-0.199951171875-0.035888671875t-0.100830078125-0.138427734375z"/></svg>
